<svg version="1.1" viewBox="0.0 0.0 600.0 371.0" fill="none" stroke="none" stroke-linecap="square" stroke-miterlimit="10" width="600" height="371" xmlns:xlink="http://www.w3.org/1999/xlink" xmlns="http://www.w3.org/2000/svg"><path fill="#ffffff" d="M0 0L600.0 0L600.0 371.0L0 371.0L0 0Z" fill-rule="nonzero"/><path fill="#ff0000" d="M300.0 54.916668C306.21567 54.916668 312.42523 55.306213 318.59216 56.08302L300.0 203.68333Z" fill-rule="nonzero"/><path fill="#38761d" d="M318.59216 56.08302C398.3097 66.124466 455.64993 137.6505 448.11023 217.64343C440.5705 297.63638 370.8755 357.18872 290.68564 352.1581C210.4958 347.12753 148.7898 279.33194 151.30632 199.02386C153.82285 118.71581 219.65253 54.916668 300.0 54.916668L300.0 203.68333Z" fill-rule="nonzero"/><path fill="#1a1a1a" d="M20.971874 332.45L18.690624 323.85626L19.8625 323.85626L21.175 329.4969Q21.378124 330.3719 21.534374 331.2469Q21.8625 329.8719 21.925 329.65314L23.55 323.85626L24.925 323.85626L26.159374 328.2Q26.6125 329.825 26.83125 331.2469Q26.9875 330.4344 27.253124 329.3719L28.596874 323.85626L29.7375 323.85626L27.39375 332.45L26.284374 332.45L24.4875 325.90314Q24.253124 325.09064 24.20625 324.90314Q24.08125 325.48126 23.95625 325.90314L22.14375 332.45L20.971874 332.45ZM30.346874 325.075L30.346874 323.85626L31.409374 323.85626L31.409374 325.075L30.346874 325.075ZM30.346874 332.45L30.346874 326.23126L31.409374 326.23126L31.409374 332.45L30.346874 332.45ZM35.64375 331.5125L35.8 332.4344Q35.346874 332.52814 35.003124 332.52814Q34.425 332.52814 34.1125 332.35626Q33.8 332.16876 33.659374 331.8719Q33.534374 331.575 33.534374 330.6219L33.534374 327.04376L32.76875 327.04376L32.76875 326.23126L33.534374 326.23126L33.534374 324.6844L34.58125 324.0594L34.58125 326.23126L35.64375 326.23126L35.64375 327.04376L34.58125 327.04376L34.58125 330.6844Q34.58125 331.1375 34.628124 331.2625Q34.690624 331.3875 34.815624 331.46564Q34.940624 331.54376 35.175 331.54376Q35.3625 331.54376 35.64375 331.5125ZM36.346874 332.45L36.346874 323.85626L37.39375 323.85626L37.39375 326.9344Q38.128124 326.09064 39.253124 326.09064Q39.95625 326.09064 40.45625 326.3719Q40.971874 326.6375 41.190624 327.1219Q41.409374 327.59064 41.409374 328.5125L41.409374 332.45L40.3625 332.45L40.3625 328.5125Q40.3625 327.71564 40.01875 327.35626Q39.675 326.9969 39.05 326.9969Q38.58125 326.9969 38.159374 327.2469Q37.753124 327.48126 37.565624 327.90314Q37.39375 328.3094 37.39375 329.04376L37.39375 332.45L36.346874 332.45ZM52.6125 329.4344L53.7375 329.73126Q53.378124 331.1219 52.45625 331.85626Q51.534374 332.59064 50.190624 332.59064Q48.8 332.59064 47.925 332.02814Q47.05 331.46564 46.596874 330.40314Q46.14375 329.325 46.14375 328.09064Q46.14375 326.7469 46.659374 325.7469Q47.175 324.7469 48.1125 324.23126Q49.065624 323.71564 50.20625 323.71564Q51.4875 323.71564 52.3625 324.3719Q53.253124 325.02814 53.596874 326.21564L52.471874 326.48126Q52.175 325.54376 51.596874 325.1219Q51.034374 324.6844 50.175 324.6844Q49.190624 324.6844 48.51875 325.16876Q47.8625 325.6375 47.58125 326.4344Q47.315624 327.23126 47.315624 328.09064Q47.315624 329.1844 47.628124 329.9969Q47.95625 330.8094 48.628124 331.21564Q49.3 331.6219 50.096874 331.6219Q51.05 331.6219 51.70625 331.075Q52.378124 330.52814 52.6125 329.4344ZM59.409374 331.6844Q58.815624 332.1844 58.26875 332.3875Q57.7375 332.59064 57.1125 332.59064Q56.08125 332.59064 55.534374 332.09064Q54.9875 331.59064 54.9875 330.8094Q54.9875 330.35626 55.190624 329.98126Q55.39375 329.59064 55.7375 329.3719Q56.08125 329.1375 56.503124 329.02814Q56.8 328.9344 57.440624 328.85626Q58.70625 328.71564 59.315624 328.4969Q59.315624 328.27814 59.315624 328.23126Q59.315624 327.575 59.01875 327.3094Q58.6125 326.96564 57.815624 326.96564Q57.08125 326.96564 56.721874 327.23126Q56.3625 327.48126 56.190624 328.1375L55.159374 327.9969Q55.3 327.34064 55.628124 326.9344Q55.95625 326.52814 56.565624 326.3094Q57.175 326.09064 57.971874 326.09064Q58.76875 326.09064 59.26875 326.27814Q59.76875 326.46564 60.003124 326.7469Q60.2375 327.02814 60.33125 327.46564Q60.378124 327.73126 60.378124 328.4344L60.378124 329.84064Q60.378124 331.3094 60.440624 331.7Q60.51875 332.09064 60.721874 332.45L59.6125 332.45Q59.45625 332.1219 59.409374 331.6844ZM59.315624 329.325Q58.7375 329.5594 57.596874 329.73126Q56.940624 329.825 56.675 329.95Q56.409374 330.0594 56.253124 330.27814Q56.1125 330.4969 56.1125 330.77814Q56.1125 331.2 56.425 331.48126Q56.753124 331.7625 57.3625 331.7625Q57.971874 331.7625 58.440624 331.4969Q58.925 331.23126 59.14375 330.7625Q59.315624 330.40314 59.315624 329.71564L59.315624 329.325ZM66.40938 330.16876L67.44063 330.3094Q67.26875 331.3719 66.56563 331.98126Q65.8625 332.59064 64.84688 332.59064Q63.565624 332.59064 62.784374 331.7625Q62.01875 330.91876 62.01875 329.35626Q62.01875 328.35626 62.346874 327.60626Q62.690624 326.84064 63.3625 326.46564Q64.05 326.09064 64.8625 326.09064Q65.8625 326.09064 66.50313 326.60626Q67.15938 327.10626 67.34688 328.0594L66.31563 328.21564Q66.175 327.59064 65.8 327.27814Q65.425 326.95 64.89375 326.95Q64.09688 326.95 63.596874 327.52814Q63.096874 328.09064 63.096874 329.325Q63.096874 330.59064 63.58125 331.15314Q64.06563 331.71564 64.83125 331.71564Q65.45625 331.71564 65.8625 331.34064Q66.28438 330.96564 66.40938 330.16876ZM68.34688 332.45L68.34688 323.85626L69.39375 323.85626L69.39375 326.9344Q70.12813 326.09064 71.25313 326.09064Q71.95625 326.09064 72.45625 326.3719Q72.97188 326.6375 73.19063 327.1219Q73.40938 327.59064 73.40938 328.5125L73.40938 332.45L72.3625 332.45L72.3625 328.5125Q72.3625 327.71564 72.01875 327.35626Q71.675 326.9969 71.05 326.9969Q70.58125 326.9969 70.15938 327.2469Q69.75313 327.48126 69.56563 327.90314Q69.39375 328.3094 69.39375 329.04376L69.39375 332.45L68.34688 332.45ZM79.59688 330.45L80.69063 330.575Q80.44063 331.52814 79.7375 332.0594Q79.03438 332.59064 77.95625 332.59064Q76.59688 332.59064 75.78438 331.7469Q74.9875 330.90314 74.9875 329.3875Q74.9875 327.825 75.8 326.96564Q76.6125 326.09064 77.89375 326.09064Q79.14375 326.09064 79.925 326.9344Q80.72188 327.77814 80.72188 329.325Q80.72188 329.41876 80.72188 329.60626L76.08125 329.60626Q76.14375 330.6375 76.65938 331.1844Q77.175 331.71564 77.95625 331.71564Q78.53438 331.71564 78.94063 331.41876Q79.3625 331.10626 79.59688 330.45ZM76.14375 328.7469L79.6125 328.7469Q79.55 327.95 79.22188 327.5594Q78.70625 326.95 77.90938 326.95Q77.175 326.95 76.675 327.4344Q76.19063 327.91876 76.14375 328.7469Z" fill-rule="nonzero"/><path fill="#9e9e9e" d="M19.20625 347.46564L20.221874 347.3719Q20.346874 348.09064 20.70625 348.41876Q21.08125 348.73126 21.64375 348.73126Q22.128124 348.73126 22.4875 348.5125Q22.8625 348.27814 23.096874 347.91876Q23.33125 347.54376 23.4875 346.91876Q23.64375 346.27814 23.64375 345.6219Q23.64375 345.54376 23.64375 345.40314Q23.33125 345.90314 22.784374 346.23126Q22.2375 346.54376 21.596874 346.54376Q20.51875 346.54376 19.784374 345.77814Q19.05 344.9969 19.05 343.73126Q19.05 342.41876 19.815624 341.6219Q20.596874 340.825 21.753124 340.825Q22.58125 340.825 23.26875 341.27814Q23.971874 341.73126 24.33125 342.575Q24.690624 343.40314 24.690624 344.98126Q24.690624 346.6219 24.33125 347.60626Q23.9875 348.575 23.26875 349.09064Q22.565624 349.59064 21.628124 349.59064Q20.6125 349.59064 19.971874 349.04376Q19.33125 348.48126 19.20625 347.46564ZM23.51875 343.66876Q23.51875 342.7625 23.034374 342.23126Q22.565624 341.7 21.878124 341.7Q21.175 341.7 20.64375 342.27814Q20.128124 342.84064 20.128124 343.7625Q20.128124 344.575 20.628124 345.09064Q21.128124 345.60626 21.846874 345.60626Q22.58125 345.60626 23.05 345.09064Q23.51875 344.575 23.51875 343.66876ZM27.675 344.79376Q27.01875 344.54376 26.690624 344.10626Q26.378124 343.65314 26.378124 343.04376Q26.378124 342.10626 27.05 341.46564Q27.7375 340.825 28.846874 340.825Q29.971874 340.825 30.659374 341.48126Q31.346874 342.1375 31.346874 343.075Q31.346874 343.66876 31.034374 344.10626Q30.721874 344.54376 30.08125 344.79376Q30.878124 345.04376 31.284374 345.6219Q31.690624 346.2 31.690624 346.9969Q31.690624 348.09064 30.909374 348.84064Q30.14375 349.59064 28.8625 349.59064Q27.596874 349.59064 26.815624 348.84064Q26.034374 348.09064 26.034374 346.96564Q26.034374 346.1219 26.45625 345.5594Q26.89375 344.9969 27.675 344.79376ZM27.45625 342.9969Q27.45625 343.60626 27.846874 343.9969Q28.253124 344.3875 28.878124 344.3875Q29.4875 344.3875 29.878124 344.0125Q30.26875 343.6219 30.26875 343.0594Q30.26875 342.48126 29.8625 342.09064Q29.45625 341.6844 28.8625 341.6844Q28.253124 341.6844 27.846874 342.075Q27.45625 342.46564 27.45625 342.9969ZM27.128124 346.96564Q27.128124 347.41876 27.33125 347.84064Q27.55 348.2625 27.971874 348.4969Q28.39375 348.73126 28.878124 348.73126Q29.628124 348.73126 30.1125 348.2469Q30.6125 347.7625 30.6125 347.0125Q30.6125 346.2469 30.1125 345.7469Q29.6125 345.2469 28.846874 345.2469Q28.096874 345.2469 27.6125 345.7469Q27.128124 346.23126 27.128124 346.96564ZM33.64375 349.45L33.64375 348.2469L34.846874 348.2469L34.846874 349.45L33.64375 349.45ZM36.05 345.21564Q36.05 343.6844 36.3625 342.7625Q36.675 341.825 37.284374 341.325Q37.909374 340.825 38.846874 340.825Q39.534374 340.825 40.05 341.10626Q40.58125 341.3875 40.925 341.91876Q41.26875 342.4344 41.45625 343.1844Q41.64375 343.9344 41.64375 345.21564Q41.64375 346.73126 41.33125 347.65314Q41.034374 348.575 40.409374 349.09064Q39.8 349.59064 38.846874 349.59064Q37.6125 349.59064 36.89375 348.7Q36.05 347.6375 36.05 345.21564ZM37.128124 345.21564Q37.128124 347.325 37.628124 348.02814Q38.128124 348.73126 38.846874 348.73126Q39.58125 348.73126 40.065624 348.02814Q40.565624 347.325 40.565624 345.21564Q40.565624 343.09064 40.065624 342.40314Q39.58125 341.7 38.83125 341.7Q38.1125 341.7 37.675 342.3094Q37.128124 343.09064 37.128124 345.21564ZM43.253124 342.91876Q43.253124 341.9969 43.70625 341.35626Q44.175 340.71564 45.05 340.71564Q45.8625 340.71564 46.39375 341.29376Q46.925 341.8719 46.925 342.98126Q46.925 344.075 46.378124 344.66876Q45.846874 345.2469 45.065624 345.2469Q44.284374 345.2469 43.76875 344.66876Q43.253124 344.09064 43.253124 342.91876ZM45.08125 341.4344Q44.690624 341.4344 44.425 341.77814Q44.175 342.1219 44.175 343.02814Q44.175 343.85626 44.425 344.2Q44.690624 344.52814 45.08125 344.52814Q45.4875 344.52814 45.7375 344.1844Q46.003124 343.84064 46.003124 342.95Q46.003124 342.10626 45.7375 341.77814Q45.471874 341.4344 45.08125 341.4344ZM45.08125 349.7625L49.784374 340.71564L50.64375 340.71564L45.95625 349.7625L45.08125 349.7625ZM48.8 347.4344Q48.8 346.5125 49.253124 345.8719Q49.721874 345.23126 50.6125 345.23126Q51.425 345.23126 51.95625 345.8094Q52.4875 346.3719 52.4875 347.4969Q52.4875 348.59064 51.940624 349.1844Q51.409374 349.7625 50.6125 349.7625Q49.846874 349.7625 49.315624 349.1844Q48.8 348.60626 48.8 347.4344ZM50.64375 345.95Q50.2375 345.95 49.971874 346.29376Q49.721874 346.6375 49.721874 347.54376Q49.721874 348.35626 49.9875 348.7Q50.253124 349.04376 50.64375 349.04376Q51.034374 349.04376 51.3 348.7Q51.565624 348.35626 51.565624 347.45Q51.565624 346.6219 51.3 346.29376Q51.034374 345.95 50.64375 345.95Z" fill-rule="nonzero"/><path stroke="#757575" stroke-width="1.0" stroke-linecap="butt" d="M18.55 336.95L145.23334 336.95L291.15137 344.73438" fill-rule="nonzero"/><path fill="#9e9e9e" d="M293.15137 344.73438C293.15137 343.62982 292.25595 342.73438 291.15137 342.73438C290.04678 342.73438 289.15137 343.62982 289.15137 344.73438C289.15137 345.83896 290.04678 346.73438 291.15137 346.73438C292.25595 346.73438 293.15137 345.83896 293.15137 344.73438" fill-rule="nonzero"/><path fill="#1a1a1a" d="M527.3719 65.916664L527.3719 57.322914L528.52814 57.322914L533.04376 64.072914L533.04376 57.322914L534.1375 57.322914L534.1375 65.916664L532.96564 65.916664L528.45 59.166664L528.45 65.916664L527.3719 65.916664ZM535.85626 62.80729Q535.85626 61.072914 536.8094 60.24479Q537.60626 59.55729 538.7625 59.55729Q540.04376 59.55729 540.85626 60.40104Q541.6844 61.229164 541.6844 62.71354Q541.6844 63.916664 541.325 64.604164Q540.96564 65.291664 540.2625 65.68229Q539.575 66.05729 538.7625 66.05729Q537.46564 66.05729 536.65314 65.229164Q535.85626 64.385414 535.85626 62.80729ZM536.9344 62.80729Q536.9344 63.99479 537.45 64.58854Q537.98126 65.18229 538.7625 65.18229Q539.5594 65.18229 540.075 64.58854Q540.59064 63.99479 540.59064 62.77604Q540.59064 61.61979 540.0594 61.02604Q539.54376 60.43229 538.7625 60.43229Q537.98126 60.43229 537.45 61.02604Q536.9344 61.604164 536.9344 62.80729ZM552.5125 62.90104L553.6375 63.197914Q553.27814 64.58854 552.35626 65.322914Q551.4344 66.05729 550.09064 66.05729Q548.7 66.05729 547.825 65.49479Q546.95 64.93229 546.4969 63.86979Q546.04376 62.791664 546.04376 61.55729Q546.04376 60.21354 546.5594 59.21354Q547.075 58.21354 548.0125 57.697914Q548.96564 57.18229 550.10626 57.18229Q551.3875 57.18229 552.2625 57.83854Q553.15314 58.49479 553.4969 59.68229L552.3719 59.947914Q552.075 59.010414 551.4969 58.58854Q550.9344 58.15104 550.075 58.15104Q549.09064 58.15104 548.41876 58.635414Q547.7625 59.104164 547.48126 59.90104Q547.21564 60.697914 547.21564 61.55729Q547.21564 62.65104 547.52814 63.46354Q547.85626 64.27604 548.52814 64.68229Q549.2 65.08854 549.9969 65.08854Q550.95 65.08854 551.60626 64.541664Q552.27814 63.99479 552.5125 62.90104ZM559.3094 65.15104Q558.71564 65.65104 558.16876 65.854164Q557.6375 66.05729 557.0125 66.05729Q555.98126 66.05729 555.4344 65.55729Q554.8875 65.05729 554.8875 64.27604Q554.8875 63.822914 555.09064 63.447914Q555.29376 63.05729 555.6375 62.83854Q555.98126 62.604164 556.40314 62.49479Q556.7 62.40104 557.34064 62.322914Q558.60626 62.18229 559.21564 61.96354Q559.21564 61.74479 559.21564 61.697914Q559.21564 61.041664 558.91876 60.77604Q558.5125 60.43229 557.71564 60.43229Q556.98126 60.43229 556.6219 60.697914Q556.2625 60.947914 556.09064 61.604164L555.0594 61.46354Q555.2 60.80729 555.52814 60.40104Q555.85626 59.99479 556.46564 59.77604Q557.075 59.55729 557.8719 59.55729Q558.66876 59.55729 559.16876 59.74479Q559.66876 59.93229 559.90314 60.21354Q560.1375 60.49479 560.23126 60.93229Q560.27814 61.197914 560.27814 61.90104L560.27814 63.30729Q560.27814 64.77604 560.34064 65.166664Q560.41876 65.55729 560.6219 65.916664L559.5125 65.916664Q559.35626 65.58854 559.3094 65.15104ZM559.21564 62.791664Q558.6375 63.02604 557.4969 63.197914Q556.84064 63.291664 556.575 63.416664Q556.3094 63.52604 556.15314 63.74479Q556.0125 63.96354 556.0125 64.24479Q556.0125 64.666664 556.325 64.947914Q556.65314 65.229164 557.2625 65.229164Q557.8719 65.229164 558.34064 64.96354Q558.825 64.697914 559.04376 64.229164Q559.21564 63.86979 559.21564 63.18229L559.21564 62.791664ZM566.3094 63.635414L567.34064 63.77604Q567.16876 64.83854 566.46564 65.447914Q565.7625 66.05729 564.7469 66.05729Q563.46564 66.05729 562.6844 65.229164Q561.91876 64.385414 561.91876 62.822914Q561.91876 61.822914 562.2469 61.072914Q562.59064 60.30729 563.2625 59.93229Q563.95 59.55729 564.7625 59.55729Q565.7625 59.55729 566.40314 60.072914Q567.0594 60.572914 567.2469 61.52604L566.21564 61.68229Q566.075 61.05729 565.7 60.74479Q565.325 60.416664 564.79376 60.416664Q563.9969 60.416664 563.4969 60.99479Q562.9969 61.55729 562.9969 62.791664Q562.9969 64.05729 563.48126 64.61979Q563.96564 65.18229 564.73126 65.18229Q565.35626 65.18229 565.7625 64.80729Q566.1844 64.43229 566.3094 63.635414ZM568.2469 65.916664L568.2469 57.322914L569.29376 57.322914L569.29376 60.40104Q570.02814 59.55729 571.15314 59.55729Q571.85626 59.55729 572.35626 59.83854Q572.8719 60.104164 573.09064 60.58854Q573.3094 61.05729 573.3094 61.979164L573.3094 65.916664L572.2625 65.916664L572.2625 61.979164Q572.2625 61.18229 571.91876 60.822914Q571.575 60.46354 570.95 60.46354Q570.48126 60.46354 570.0594 60.71354Q569.65314 60.947914 569.46564 61.36979Q569.29376 61.77604 569.29376 62.510414L569.29376 65.916664L568.2469 65.916664ZM579.4969 63.916664L580.59064 64.041664Q580.34064 64.99479 579.6375 65.52604Q578.9344 66.05729 577.85626 66.05729Q576.4969 66.05729 575.6844 65.21354Q574.8875 64.36979 574.8875 62.854164Q574.8875 61.291664 575.7 60.43229Q576.5125 59.55729 577.79376 59.55729Q579.04376 59.55729 579.825 60.40104Q580.6219 61.24479 580.6219 62.791664Q580.6219 62.885414 580.6219 63.072914L575.98126 63.072914Q576.04376 64.104164 576.5594 64.65104Q577.075 65.18229 577.85626 65.18229Q578.4344 65.18229 578.84064 64.885414Q579.2625 64.572914 579.4969 63.916664ZM576.04376 62.21354L579.5125 62.21354Q579.45 61.416664 579.1219 61.02604Q578.60626 60.416664 577.8094 60.416664Q577.075 60.416664 576.575 60.90104Q576.09064 61.385414 576.04376 62.21354Z" fill-rule="nonzero"/><path fill="#9e9e9e" d="M559.4969 81.90104L559.4969 82.916664L553.8094 82.916664Q553.8094 82.541664 553.9344 82.18229Q554.15314 81.604164 554.6219 81.041664Q555.10626 80.479164 556.0125 79.74479Q557.41876 78.58854 557.90314 77.916664Q558.40314 77.24479 558.40314 76.65104Q558.40314 76.02604 557.95 75.604164Q557.4969 75.166664 556.77814 75.166664Q556.0125 75.166664 555.5594 75.61979Q555.10626 76.072914 555.09064 76.885414L554.0125 76.77604Q554.1219 75.55729 554.84064 74.93229Q555.575 74.291664 556.8094 74.291664Q558.04376 74.291664 558.7625 74.979164Q559.48126 75.666664 559.48126 76.68229Q559.48126 77.197914 559.2625 77.697914Q559.0594 78.18229 558.5594 78.74479Q558.075 79.291664 556.95 80.24479Q555.9969 81.041664 555.71564 81.33854Q555.45 81.61979 555.27814 81.90104L559.4969 81.90104ZM561.54376 82.916664L561.54376 81.71354L562.7469 81.71354L562.7469 82.916664L561.54376 82.916664ZM563.95 78.68229Q563.95 77.15104 564.2625 76.229164Q564.575 75.291664 565.1844 74.791664Q565.8094 74.291664 566.7469 74.291664Q567.4344 74.291664 567.95 74.572914Q568.48126 74.854164 568.825 75.385414Q569.16876 75.90104 569.35626 76.65104Q569.54376 77.40104 569.54376 78.68229Q569.54376 80.197914 569.23126 81.11979Q568.9344 82.041664 568.3094 82.55729Q567.7 83.05729 566.7469 83.05729Q565.5125 83.05729 564.79376 82.166664Q563.95 81.104164 563.95 78.68229ZM565.02814 78.68229Q565.02814 80.791664 565.52814 81.49479Q566.02814 82.197914 566.7469 82.197914Q567.48126 82.197914 567.96564 81.49479Q568.46564 80.791664 568.46564 78.68229Q568.46564 76.55729 567.96564 75.86979Q567.48126 75.166664 566.73126 75.166664Q566.0125 75.166664 565.575 75.77604Q565.02814 76.55729 565.02814 78.68229ZM571.15314 76.385414Q571.15314 75.46354 571.60626 74.822914Q572.075 74.18229 572.95 74.18229Q573.7625 74.18229 574.29376 74.760414Q574.825 75.33854 574.825 76.447914Q574.825 77.541664 574.27814 78.135414Q573.7469 78.71354 572.96564 78.71354Q572.1844 78.71354 571.66876 78.135414Q571.15314 77.55729 571.15314 76.385414ZM572.98126 74.90104Q572.59064 74.90104 572.325 75.24479Q572.075 75.58854 572.075 76.49479Q572.075 77.322914 572.325 77.666664Q572.59064 77.99479 572.98126 77.99479Q573.3875 77.99479 573.6375 77.65104Q573.90314 77.30729 573.90314 76.416664Q573.90314 75.572914 573.6375 75.24479Q573.3719 74.90104 572.98126 74.90104ZM572.98126 83.229164L577.6844 74.18229L578.54376 74.18229L573.85626 83.229164L572.98126 83.229164ZM576.7 80.90104Q576.7 79.979164 577.15314 79.33854Q577.6219 78.697914 578.5125 78.697914Q579.325 78.697914 579.85626 79.27604Q580.3875 79.83854 580.3875 80.96354Q580.3875 82.05729 579.84064 82.65104Q579.3094 83.229164 578.5125 83.229164Q577.7469 83.229164 577.21564 82.65104Q576.7 82.072914 576.7 80.90104ZM578.54376 79.416664Q578.1375 79.416664 577.8719 79.760414Q577.6219 80.104164 577.6219 81.010414Q577.6219 81.822914 577.8875 82.166664Q578.15314 82.510414 578.54376 82.510414Q578.9344 82.510414 579.2 82.166664Q579.46564 81.822914 579.46564 80.916664Q579.46564 80.08854 579.2 79.760414Q578.9344 79.416664 578.54376 79.416664Z" fill-rule="nonzero"/><path stroke="#757575" stroke-width="1.0" stroke-linecap="butt" d="M581.45 70.416664L454.76666 70.416664L308.84863 62.632282" fill-rule="nonzero"/><path fill="#9e9e9e" d="M310.84863 62.632282C310.84863 61.52771 309.95322 60.632282 308.84863 60.632282C307.74405 60.632282 306.84863 61.52771 306.84863 62.632282C306.84863 63.73685 307.74405 64.63228 308.84863 64.63228C309.95322 64.63228 310.84863 63.73685 310.84863 62.632282" fill-rule="nonzero"/><path fill="#757575" d="M30.315624 32.534374L32.20625 33.003124Q31.6125 35.346874 30.065624 36.58125Q28.51875 37.8 26.26875 37.8Q23.95625 37.8 22.503124 36.8625Q21.065624 35.909374 20.3 34.128124Q19.55 32.33125 19.55 30.284374Q19.55 28.05 20.39375 26.39375Q21.253124 24.721874 22.83125 23.8625Q24.409374 22.9875 26.3 22.9875Q28.45625 22.9875 29.909374 24.08125Q31.378124 25.175 31.95625 27.159374L30.096874 27.596874Q29.596874 26.034374 28.64375 25.33125Q27.70625 24.6125 26.26875 24.6125Q24.6125 24.6125 23.503124 25.409374Q22.39375 26.190624 21.940624 27.534374Q21.503124 28.8625 21.503124 30.26875Q21.503124 32.096874 22.034374 33.471874Q22.565624 34.83125 23.690624 35.503124Q24.815624 36.175 26.1125 36.175Q27.70625 36.175 28.815624 35.253124Q29.925 34.33125 30.315624 32.534374ZM40.64375 36.26875Q39.659374 37.096874 38.753124 37.440624Q37.846874 37.784374 36.815624 37.784374Q35.1125 37.784374 34.190624 36.95625Q33.26875 36.1125 33.26875 34.815624Q33.26875 34.05 33.6125 33.425Q33.971874 32.8 34.534374 32.425Q35.096874 32.034374 35.8 31.83125Q36.315624 31.70625 37.3625 31.565624Q39.4875 31.315624 40.4875 30.971874Q40.503124 30.6125 40.503124 30.503124Q40.503124 29.440624 40.003124 28.9875Q39.33125 28.39375 38.003124 28.39375Q36.753124 28.39375 36.159374 28.83125Q35.58125 29.26875 35.3 30.378124L33.58125 30.14375Q33.815624 29.034374 34.346874 28.3625Q34.878124 27.675 35.89375 27.315624Q36.909374 26.940624 38.253124 26.940624Q39.58125 26.940624 40.409374 27.253124Q41.2375 27.565624 41.628124 28.05Q42.01875 28.51875 42.175 29.2375Q42.26875 29.690624 42.26875 30.8625L42.26875 33.20625Q42.26875 35.659374 42.378124 36.315624Q42.4875 36.95625 42.83125 37.55L40.9875 37.55Q40.721874 37.003124 40.64375 36.26875ZM40.4875 32.346874Q39.534374 32.7375 37.6125 33.003124Q36.534374 33.159374 36.08125 33.3625Q35.64375 33.55 35.39375 33.925Q35.14375 34.3 35.14375 34.76875Q35.14375 35.471874 35.675 35.940624Q36.20625 36.409374 37.2375 36.409374Q38.253124 36.409374 39.034374 35.971874Q39.83125 35.51875 40.20625 34.753124Q40.4875 34.14375 40.4875 32.9875L40.4875 32.346874ZM51.64375 33.753124L53.3625 33.971874Q53.08125 35.76875 51.909374 36.784374Q50.753124 37.784374 49.05 37.784374Q46.925 37.784374 45.628124 36.39375Q44.33125 35.003124 44.33125 32.409374Q44.33125 30.721874 44.878124 29.471874Q45.440624 28.20625 46.58125 27.58125Q47.721874 26.940624 49.065624 26.940624Q50.753124 26.940624 51.815624 27.8Q52.89375 28.659374 53.20625 30.221874L51.4875 30.4875Q51.253124 29.440624 50.628124 28.925Q50.003124 28.39375 49.128124 28.39375Q47.8 28.39375 46.971874 29.346874Q46.14375 30.3 46.14375 32.346874Q46.14375 34.440624 46.940624 35.39375Q47.7375 36.33125 49.034374 36.33125Q50.065624 36.33125 50.753124 35.70625Q51.45625 35.065624 51.64375 33.753124ZM54.8625 37.55L54.8625 23.2375L56.628124 23.2375L56.628124 28.3625Q57.8625 26.940624 59.7375 26.940624Q60.878124 26.940624 61.721874 27.39375Q62.58125 27.846874 62.940624 28.659374Q63.315624 29.45625 63.315624 30.971874L63.315624 37.55L61.565624 37.55L61.565624 30.971874Q61.565624 29.659374 60.9875 29.065624Q60.409374 28.45625 59.378124 28.45625Q58.596874 28.45625 57.89375 28.8625Q57.20625 29.26875 56.909374 29.971874Q56.628124 30.659374 56.628124 31.878124L56.628124 37.55L54.8625 37.55ZM71.97188 34.20625L73.78438 34.440624Q73.3625 36.01875 72.19063 36.909374Q71.03438 37.784374 69.22188 37.784374Q66.95625 37.784374 65.6125 36.39375Q64.28438 34.9875 64.28438 32.45625Q64.28438 29.83125 65.62813 28.39375Q66.97188 26.940624 69.12813 26.940624Q71.20625 26.940624 72.51875 28.3625Q73.84688 29.76875 73.84688 32.346874Q73.84688 32.503124 73.83125 32.815624L66.09688 32.815624Q66.19063 34.51875 67.06563 35.425Q67.94063 36.33125 69.2375 36.33125Q70.20625 36.33125 70.87813 35.83125Q71.56563 35.315624 71.97188 34.20625ZM66.19063 31.3625L71.9875 31.3625Q71.87813 30.065624 71.33125 29.409374Q70.4875 28.39375 69.14375 28.39375Q67.94063 28.39375 67.1125 29.20625Q66.28438 30.003124 66.19063 31.3625ZM84.75313 37.55L80.8 27.175L82.65938 27.175L84.89375 33.39375Q85.25313 34.39375 85.55 35.471874Q85.78438 34.659374 86.20625 33.503124L88.50313 27.175L90.31563 27.175L86.39375 37.55L84.75313 37.55ZM90.15938 34.45625L91.90938 34.175Q92.05 35.221874 92.72188 35.784374Q93.39375 36.33125 94.59688 36.33125Q95.8 36.33125 96.37813 35.846874Q96.97188 35.346874 96.97188 34.690624Q96.97188 34.096874 96.45625 33.753124Q96.09688 33.51875 94.65938 33.159374Q92.72188 32.659374 91.97188 32.315624Q91.2375 31.95625 90.84688 31.33125Q90.45625 30.690624 90.45625 29.925Q90.45625 29.2375 90.76875 28.64375Q91.09688 28.05 91.64375 27.659374Q92.05 27.3625 92.75313 27.159374Q93.47188 26.940624 94.28438 26.940624Q95.50313 26.940624 96.425 27.3Q97.34688 27.64375 97.78438 28.253124Q98.22188 28.846874 98.39375 29.846874L96.675 30.08125Q96.55 29.284374 95.9875 28.846874Q95.425 28.39375 94.40938 28.39375Q93.19063 28.39375 92.675 28.8Q92.15938 29.190624 92.15938 29.721874Q92.15938 30.065624 92.37813 30.346874Q92.58125 30.628124 93.05 30.815624Q93.31563 30.909374 94.59688 31.253124Q96.47188 31.753124 97.20625 32.08125Q97.94063 32.39375 98.3625 33.003124Q98.78438 33.596874 98.78438 34.503124Q98.78438 35.378124 98.26875 36.159374Q97.75313 36.940624 96.78438 37.3625Q95.81563 37.784374 94.59688 37.784374Q92.58125 37.784374 91.51875 36.940624Q90.45625 36.096874 90.15938 34.45625ZM107.08125 37.55L107.08125 23.2375L109.01875 23.2375L116.53438 34.471874L116.53438 23.2375L118.34688 23.2375L118.34688 37.55L116.40938 37.55L108.89375 26.3L108.89375 37.55L107.08125 37.55ZM119.22188 32.3625Q119.22188 29.4875 120.81563 28.096874Q122.15938 26.940624 124.08125 26.940624Q126.22188 26.940624 127.56563 28.346874Q128.925 29.753124 128.925 32.221874Q128.925 34.221874 128.33125 35.378124Q127.7375 36.51875 126.58125 37.159374Q125.44063 37.784374 124.08125 37.784374Q121.89375 37.784374 120.55 36.39375Q119.22188 34.9875 119.22188 32.3625ZM121.01875 32.3625Q121.01875 34.3625 121.87813 35.346874Q122.75313 36.33125 124.08125 36.33125Q125.39375 36.33125 126.25313 35.346874Q127.12813 34.346874 127.12813 32.3Q127.12813 30.378124 126.25313 29.39375Q125.37813 28.39375 124.08125 28.39375Q122.75313 28.39375 121.87813 29.39375Q121.01875 30.378124 121.01875 32.3625ZM147.31563 32.534374L149.20625 33.003124Q148.6125 35.346874 147.06563 36.58125Q145.51875 37.8 143.26875 37.8Q140.95625 37.8 139.50313 36.8625Q138.06563 35.909374 137.3 34.128124Q136.55 32.33125 136.55 30.284374Q136.55 28.05 137.39375 26.39375Q138.25313 24.721874 139.83125 23.8625Q141.40938 22.9875 143.3 22.9875Q145.45625 22.9875 146.90938 24.08125Q148.37813 25.175 148.95625 27.159374L147.09688 27.596874Q146.59688 26.034374 145.64375 25.33125Q144.70625 24.6125 143.26875 24.6125Q141.6125 24.6125 140.50313 25.409374Q139.39375 26.190624 138.94063 27.534374Q138.50313 28.8625 138.50313 30.26875Q138.50313 32.096874 139.03438 33.471874Q139.56563 34.83125 140.69063 35.503124Q141.81563 36.175 143.1125 36.175Q144.70625 36.175 145.81563 35.253124Q146.925 34.33125 147.31563 32.534374ZM157.64375 36.26875Q156.65938 37.096874 155.75313 37.440624Q154.84688 37.784374 153.81563 37.784374Q152.1125 37.784374 151.19063 36.95625Q150.26875 36.1125 150.26875 34.815624Q150.26875 34.05 150.6125 33.425Q150.97188 32.8 151.53438 32.425Q152.09688 32.034374 152.8 31.83125Q153.31563 31.70625 154.3625 31.565624Q156.4875 31.315624 157.4875 30.971874Q157.50313 30.6125 157.50313 30.503124Q157.50313 29.440624 157.00313 28.9875Q156.33125 28.39375 155.00313 28.39375Q153.75313 28.39375 153.15938 28.83125Q152.58125 29.26875 152.3 30.378124L150.58125 30.14375Q150.81563 29.034374 151.34688 28.3625Q151.87813 27.675 152.89375 27.315624Q153.90938 26.940624 155.25313 26.940624Q156.58125 26.940624 157.40938 27.253124Q158.2375 27.565624 158.62813 28.05Q159.01875 28.51875 159.175 29.2375Q159.26875 29.690624 159.26875 30.8625L159.26875 33.20625Q159.26875 35.659374 159.37813 36.315624Q159.4875 36.95625 159.83125 37.55L157.9875 37.55Q157.72188 37.003124 157.64375 36.26875ZM157.4875 32.346874Q156.53438 32.7375 154.6125 33.003124Q153.53438 33.159374 153.08125 33.3625Q152.64375 33.55 152.39375 33.925Q152.14375 34.3 152.14375 34.76875Q152.14375 35.471874 152.675 35.940624Q153.20625 36.409374 154.2375 36.409374Q155.25313 36.409374 156.03438 35.971874Q156.83125 35.51875 157.20625 34.753124Q157.4875 34.14375 157.4875 32.9875L157.4875 32.346874ZM168.64375 33.753124L170.3625 33.971874Q170.08125 35.76875 168.90938 36.784374Q167.75313 37.784374 166.05 37.784374Q163.925 37.784374 162.62813 36.39375Q161.33125 35.003124 161.33125 32.409374Q161.33125 30.721874 161.87813 29.471874Q162.44063 28.20625 163.58125 27.58125Q164.72188 26.940624 166.06563 26.940624Q167.75313 26.940624 168.81563 27.8Q169.89375 28.659374 170.20625 30.221874L168.4875 30.4875Q168.25313 29.440624 167.62813 28.925Q167.00313 28.39375 166.12813 28.39375Q164.8 28.39375 163.97188 29.346874Q163.14375 30.3 163.14375 32.346874Q163.14375 34.440624 163.94063 35.39375Q164.7375 36.33125 166.03438 36.33125Q167.06563 36.33125 167.75313 35.70625Q168.45625 35.065624 168.64375 33.753124ZM171.8625 37.55L171.8625 23.2375L173.62813 23.2375L173.62813 28.3625Q174.8625 26.940624 176.7375 26.940624Q177.87813 26.940624 178.72188 27.39375Q179.58125 27.846874 179.94063 28.659374Q180.31563 29.45625 180.31563 30.971874L180.31563 37.55L178.56563 37.55L178.56563 30.971874Q178.56563 29.659374 177.9875 29.065624Q177.40938 28.45625 176.37813 28.45625Q175.59688 28.45625 174.89375 28.8625Q174.20625 29.26875 173.90938 29.971874Q173.62813 30.659374 173.62813 31.878124L173.62813 37.55L171.8625 37.55ZM188.97188 34.20625L190.78438 34.440624Q190.3625 36.01875 189.19063 36.909374Q188.03438 37.784374 186.22188 37.784374Q183.95625 37.784374 182.6125 36.39375Q181.28438 34.9875 181.28438 32.45625Q181.28438 29.83125 182.62813 28.39375Q183.97188 26.940624 186.12813 26.940624Q188.20625 26.940624 189.51875 28.3625Q190.84688 29.76875 190.84688 32.346874Q190.84688 32.503124 190.83125 32.815624L183.09688 32.815624Q183.19063 34.51875 184.06563 35.425Q184.94063 36.33125 186.2375 36.33125Q187.20625 36.33125 187.87813 35.83125Q188.56563 35.315624 188.97188 34.20625ZM183.19063 31.3625L188.9875 31.3625Q188.87813 30.065624 188.33125 29.409374Q187.4875 28.39375 186.14375 28.39375Q184.94063 28.39375 184.1125 29.20625Q183.28438 30.003124 183.19063 31.3625ZM199.28438 37.55L199.28438 28.55L197.7375 28.55L197.7375 27.175L199.28438 27.175L199.28438 26.08125Q199.28438 25.034374 199.47188 24.51875Q199.72188 23.83125 200.3625 23.409374Q201.00313 22.9875 202.15938 22.9875Q202.90938 22.9875 203.8 23.159374L203.53438 24.690624Q202.9875 24.596874 202.50313 24.596874Q201.70625 24.596874 201.3625 24.940624Q201.03438 25.284374 201.03438 26.221874L201.03438 27.175L203.06563 27.175L203.06563 28.55L201.03438 28.55L201.03438 37.55L199.28438 37.55ZM204.22188 32.3625Q204.22188 29.4875 205.81563 28.096874Q207.15938 26.940624 209.08125 26.940624Q211.22188 26.940624 212.56563 28.346874Q213.925 29.753124 213.925 32.221874Q213.925 34.221874 213.33125 35.378124Q212.7375 36.51875 211.58125 37.159374Q210.44063 37.784374 209.08125 37.784374Q206.89375 37.784374 205.55 36.39375Q204.22188 34.9875 204.22188 32.3625ZM206.01875 32.3625Q206.01875 34.3625 206.87813 35.346874Q207.75313 36.33125 209.08125 36.33125Q210.39375 36.33125 211.25313 35.346874Q212.12813 34.346874 212.12813 32.3Q212.12813 30.378124 211.25313 29.39375Q210.37813 28.39375 209.08125 28.39375Q207.75313 28.39375 206.87813 29.39375Q206.01875 30.378124 206.01875 32.3625ZM215.84688 37.55L215.84688 27.175L217.425 27.175L217.425 28.753124Q218.03438 27.64375 218.55 27.3Q219.06563 26.940624 219.675 26.940624Q220.56563 26.940624 221.4875 27.503124L220.87813 29.14375Q220.2375 28.753124 219.59688 28.753124Q219.01875 28.753124 218.55 29.1125Q218.09688 29.45625 217.89375 30.065624Q217.6125 31.003124 217.6125 32.1125L217.6125 37.55L215.84688 37.55ZM228.87813 28.3L228.425 25.628124L228.425 23.2375L230.425 23.2375L230.425 25.628124L229.95625 28.3L228.87813 28.3ZM232.84688 37.55L232.84688 27.175L234.425 27.175L234.425 28.753124Q235.03438 27.64375 235.55 27.3Q236.06563 26.940624 236.675 26.940624Q237.56563 26.940624 238.4875 27.503124L237.87813 29.14375Q237.2375 28.753124 236.59688 28.753124Q236.01875 28.753124 235.55 29.1125Q235.09688 29.45625 234.89375 30.065624Q234.6125 31.003124 234.6125 32.1125L234.6125 37.55L232.84688 37.55ZM246.97188 34.20625L248.78438 34.440624Q248.3625 36.01875 247.19063 36.909374Q246.03438 37.784374 244.22188 37.784374Q241.95625 37.784374 240.6125 36.39375Q239.28438 34.9875 239.28438 32.45625Q239.28438 29.83125 240.62813 28.39375Q241.97188 26.940624 244.12813 26.940624Q246.20625 26.940624 247.51875 28.3625Q248.84688 29.76875 248.84688 32.346874Q248.84688 32.503124 248.83125 32.815624L241.09688 32.815624Q241.19063 34.51875 242.06563 35.425Q242.94063 36.33125 244.2375 36.33125Q245.20625 36.33125 245.87813 35.83125Q246.56563 35.315624 246.97188 34.20625ZM241.19063 31.3625L246.9875 31.3625Q246.87813 30.065624 246.33125 29.409374Q245.4875 28.39375 244.14375 28.39375Q242.94063 28.39375 242.1125 29.20625Q241.28438 30.003124 241.19063 31.3625ZM250.8625 37.55L250.8625 27.175L252.44063 27.175L252.44063 28.628124Q252.925 27.878124 253.7375 27.409374Q254.55 26.940624 255.58125 26.940624Q256.7375 26.940624 257.47186 27.425Q258.20624 27.89375 258.51874 28.753124Q259.7531 26.940624 261.72186 26.940624Q263.26874 26.940624 264.09686 27.8Q264.925 28.659374 264.925 30.425L264.925 37.55L263.175 37.55L263.175 31.01875Q263.175 29.95625 263.0031 29.503124Q262.83124 29.034374 262.3781 28.753124Q261.9406 28.471874 261.33124 28.471874Q260.2375 28.471874 259.5031 29.20625Q258.78436 29.925 258.78436 31.51875L258.78436 37.55L257.03436 37.55L257.03436 30.815624Q257.03436 29.64375 256.59686 29.065624Q256.175 28.471874 255.19063 28.471874Q254.45625 28.471874 253.81563 28.8625Q253.19063 29.253124 252.90938 30.003124Q252.62813 30.753124 252.62813 32.175L252.62813 37.55L250.8625 37.55ZM266.22186 32.3625Q266.22186 29.4875 267.8156 28.096874Q269.15936 26.940624 271.08124 26.940624Q273.22186 26.940624 274.5656 28.346874Q275.925 29.753124 275.925 32.221874Q275.925 34.221874 275.33124 35.378124Q274.7375 36.51875 273.58124 37.159374Q272.4406 37.784374 271.08124 37.784374Q268.89374 37.784374 267.55 36.39375Q266.22186 34.9875 266.22186 32.3625ZM268.01874 32.3625Q268.01874 34.3625 268.8781 35.346874Q269.7531 36.33125 271.08124 36.33125Q272.39374 36.33125 273.2531 35.346874Q274.1281 34.346874 274.1281 32.3Q274.1281 30.378124 273.2531 29.39375Q272.3781 28.39375 271.08124 28.39375Q269.7531 28.39375 268.8781 29.39375Q268.01874 30.378124 268.01874 32.3625ZM281.70624 35.971874L281.95624 37.534374Q281.22186 37.690624 280.6281 37.690624Q279.675 37.690624 279.14374 37.39375Q278.6281 37.08125 278.40936 36.596874Q278.1906 36.096874 278.1906 34.51875L278.1906 28.55L276.90936 28.55L276.90936 27.175L278.1906 27.175L278.1906 24.6125L279.9406 23.55L279.9406 27.175L281.70624 27.175L281.70624 28.55L279.9406 28.55L279.9406 34.6125Q279.9406 35.3625 280.03436 35.58125Q280.1281 35.784374 280.33124 35.925Q280.55 36.05 280.9406 36.05Q281.22186 36.05 281.70624 35.971874ZM290.97186 34.20625L292.78436 34.440624Q292.3625 36.01875 291.1906 36.909374Q290.03436 37.784374 288.22186 37.784374Q285.95624 37.784374 284.6125 36.39375Q283.28436 34.9875 283.28436 32.45625Q283.28436 29.83125 284.6281 28.39375Q285.97186 26.940624 288.1281 26.940624Q290.20624 26.940624 291.51874 28.3625Q292.84686 29.76875 292.84686 32.346874Q292.84686 32.503124 292.83124 32.815624L285.09686 32.815624Q285.1906 34.51875 286.0656 35.425Q286.9406 36.33125 288.2375 36.33125Q289.20624 36.33125 289.8781 35.83125Q290.5656 35.315624 290.97186 34.20625ZM285.1906 31.3625L290.9875 31.3625Q290.8781 30.065624 290.33124 29.409374Q289.4875 28.39375 288.14374 28.39375Q286.9406 28.39375 286.1125 29.20625Q285.28436 30.003124 285.1906 31.3625ZM294.8781 28.3L294.425 25.628124L294.425 23.2375L296.425 23.2375L296.425 25.628124L295.95624 28.3L294.8781 28.3ZM311.64374 33.753124L313.3625 33.971874Q313.08124 35.76875 311.90936 36.784374Q310.7531 37.784374 309.05 37.784374Q306.925 37.784374 305.6281 36.39375Q304.33124 35.003124 304.33124 32.409374Q304.33124 30.721874 304.8781 29.471874Q305.4406 28.20625 306.58124 27.58125Q307.72186 26.940624 309.0656 26.940624Q310.7531 26.940624 311.8156 27.8Q312.89374 28.659374 313.20624 30.221874L311.4875 30.4875Q311.2531 29.440624 310.6281 28.925Q310.0031 28.39375 309.1281 28.39375Q307.8 28.39375 306.97186 29.346874Q306.14374 30.3 306.14374 32.346874Q306.14374 34.440624 306.9406 35.39375Q307.7375 36.33125 309.03436 36.33125Q310.0656 36.33125 310.7531 35.70625Q311.45624 35.065624 311.64374 33.753124ZM314.83124 37.55L314.83124 23.2375L316.58124 23.2375L316.58124 37.55L314.83124 37.55ZM318.8781 25.253124L318.8781 23.2375L320.64374 23.2375L320.64374 25.253124L318.8781 25.253124ZM318.8781 37.55L318.8781 27.175L320.64374 27.175L320.64374 37.55L318.8781 37.55ZM329.97186 34.20625L331.78436 34.440624Q331.3625 36.01875 330.1906 36.909374Q329.03436 37.784374 327.22186 37.784374Q324.95624 37.784374 323.6125 36.39375Q322.28436 34.9875 322.28436 32.45625Q322.28436 29.83125 323.6281 28.39375Q324.97186 26.940624 327.1281 26.940624Q329.20624 26.940624 330.51874 28.3625Q331.84686 29.76875 331.84686 32.346874Q331.84686 32.503124 331.83124 32.815624L324.09686 32.815624Q324.1906 34.51875 325.0656 35.425Q325.9406 36.33125 327.2375 36.33125Q328.20624 36.33125 328.8781 35.83125Q329.5656 35.315624 329.97186 34.20625ZM324.1906 31.3625L329.9875 31.3625Q329.8781 30.065624 329.33124 29.409374Q328.4875 28.39375 327.14374 28.39375Q325.9406 28.39375 325.1125 29.20625Q324.28436 30.003124 324.1906 31.3625ZM333.8625 37.55L333.8625 27.175L335.45624 27.175L335.45624 28.659374Q336.59686 26.940624 338.7531 26.940624Q339.6906 26.940624 340.47186 27.284374Q341.26874 27.6125 341.65936 28.159374Q342.05 28.70625 342.20624 29.45625Q342.3 29.95625 342.3 31.175L342.3 37.55L340.53436 37.55L340.53436 31.2375Q340.53436 30.159374 340.33124 29.628124Q340.1281 29.096874 339.59686 28.784374Q339.08124 28.471874 338.3781 28.471874Q337.2531 28.471874 336.4406 29.190624Q335.6281 29.89375 335.6281 31.878124L335.6281 37.55L333.8625 37.55ZM347.70624 35.971874L347.95624 37.534374Q347.22186 37.690624 346.6281 37.690624Q345.675 37.690624 345.14374 37.39375Q344.6281 37.08125 344.40936 36.596874Q344.1906 36.096874 344.1906 34.51875L344.1906 28.55L342.90936 28.55L342.90936 27.175L344.1906 27.175L344.1906 24.6125L345.9406 23.55L345.9406 27.175L347.70624 27.175L347.70624 28.55L345.9406 28.55L345.9406 34.6125Q345.9406 35.3625 346.03436 35.58125Q346.1281 35.784374 346.33124 35.925Q346.55 36.05 346.9406 36.05Q347.22186 36.05 347.70624 35.971874ZM349.15936 34.45625L350.90936 34.175Q351.05 35.221874 351.72186 35.784374Q352.39374 36.33125 353.59686 36.33125Q354.8 36.33125 355.3781 35.846874Q355.97186 35.346874 355.97186 34.690624Q355.97186 34.096874 355.45624 33.753124Q355.09686 33.51875 353.65936 33.159374Q351.72186 32.659374 350.97186 32.315624Q350.2375 31.95625 349.84686 31.33125Q349.45624 30.690624 349.45624 29.925Q349.45624 29.2375 349.76874 28.64375Q350.09686 28.05 350.64374 27.659374Q351.05 27.3625 351.7531 27.159374Q352.47186 26.940624 353.28436 26.940624Q354.5031 26.940624 355.425 27.3Q356.34686 27.64375 356.78436 28.253124Q357.22186 28.846874 357.39374 29.846874L355.675 30.08125Q355.55 29.284374 354.9875 28.846874Q354.425 28.39375 353.40936 28.39375Q352.1906 28.39375 351.675 28.8Q351.15936 29.190624 351.15936 29.721874Q351.15936 30.065624 351.3781 30.346874Q351.58124 30.628124 352.05 30.815624Q352.3156 30.909374 353.59686 31.253124Q355.47186 31.753124 356.20624 32.08125Q356.9406 32.39375 357.3625 33.003124Q357.78436 33.596874 357.78436 34.503124Q357.78436 35.378124 357.26874 36.159374Q356.7531 36.940624 355.78436 37.3625Q354.8156 37.784374 353.59686 37.784374Q351.58124 37.784374 350.51874 36.940624Q349.45624 36.096874 349.15936 34.45625Z" fill-rule="nonzero"/></svg>